<?xml version="1.0" encoding="utf-8"?>
<!-- Generator: Adobe Illustrator 16.0.4, SVG Export Plug-In . SVG Version: 6.00 Build 0)  -->
<!DOCTYPE svg PUBLIC "-//W3C//DTD SVG 1.1//EN" "http://www.w3.org/Graphics/SVG/1.1/DTD/svg11.dtd">
<svg version="1.1" id="Layer_1" xmlns="http://www.w3.org/2000/svg" xmlns:xlink="http://www.w3.org/1999/xlink" x="0px" y="0px"
	 width="64.074px" height="54.28px" viewBox="8.007 4.823 64.074 54.28" enable-background="new 8.007 4.823 64.074 54.28"
	 xml:space="preserve">
<title>right-6</title>
<path fill="#FFFFFF" d="M8.007,10.245c0.007-3.001,2.445-5.43,5.445-5.422c1.856,0.005,3.582,0.956,4.576,2.523l21.979,35.984
	L61.986,7.467c1.566-2.568,4.918-3.379,7.486-1.812c2.567,1.567,3.378,4.919,1.811,7.487L44.837,56.494
	c-1.626,2.601-5.055,3.391-7.655,1.764c-0.714-0.447-1.317-1.051-1.764-1.764L8.973,13.143C8.38,12.289,8.045,11.282,8.007,10.245z
	 M35.418,50.696L35.418,50.696z"/>
</svg>
