<?xml version="1.0" encoding="utf-8"?>
<!-- Generator: Adobe Illustrator 16.0.4, SVG Export Plug-In . SVG Version: 6.00 Build 0)  -->
<!DOCTYPE svg PUBLIC "-//W3C//DTD SVG 1.1//EN" "http://www.w3.org/Graphics/SVG/1.1/DTD/svg11.dtd">
<svg version="1.1" id="Layer_1" xmlns="http://www.w3.org/2000/svg" xmlns:xlink="http://www.w3.org/1999/xlink" x="0px" y="0px"
	 width="17.022px" height="16.78px" viewBox="21.921 21.683 17.022 16.78" enable-background="new 21.921 21.683 17.022 16.78"
	 xml:space="preserve">
<g transform="translate(-330 -320)">
	<g>
		<rect x="360.88" y="357.475" fill="#FFFAFA" width="3.584" height="0.896"/>
		<rect x="365.359" y="357.475" fill="#FFFAFA" width="0.896" height="0.896"/>
		<rect x="363.568" y="355.682" fill="#FFFAFA" width="3.584" height="0.896"/>
		<rect x="367.152" y="357.475" fill="#FFFAFA" width="1.791" height="0.896"/>
		<path fill="#FFFAFA" d="M367.913,345.004l-2.533-2.535c-1.05-1.048-2.753-1.048-3.803,0l-8.869,8.871
			c-1.05,1.051-1.05,2.751,0,3.803l2.535,2.533c1.049,1.049,2.75,1.049,3.8,0l8.87-8.869
			C368.963,347.756,368.963,346.055,367.913,345.004z M358.409,357.043c-0.337,0.338-0.789,0.523-1.267,0.523
			s-0.93-0.187-1.268-0.524l-2.533-2.533c-0.697-0.698-0.697-1.836,0-2.534l4.436-4.436l5.068,5.068L358.409,357.043z"/>
	</g>
</g>
</svg>
