<?xml version="1.0" encoding="utf-8"?>
<!-- Generator: Adobe Illustrator 16.0.4, SVG Export Plug-In . SVG Version: 6.00 Build 0)  -->
<!DOCTYPE svg PUBLIC "-//W3C//DTD SVG 1.1//EN" "http://www.w3.org/Graphics/SVG/1.1/DTD/svg11.dtd">
<svg version="1.1" id="Layer_1" xmlns="http://www.w3.org/2000/svg" xmlns:xlink="http://www.w3.org/1999/xlink" x="0px" y="0px"
	 width="17px" height="17px" viewBox="0 0 17 17" enable-background="new 0 0 17 17" xml:space="preserve">
<polygon fill="#FFFFFF" points="5.186,17 0,17 0,11.812 1.5,13.314 5.654,9.16 7.84,11.346 3.686,15.498 "/>
<polygon fill="#FFFFFF" points="5.654,7.84 1.5,3.686 0,5.188 0,0 5.186,0 3.686,1.501 7.84,5.654 "/>
<polygon fill="#FFFFFF" points="16.968,17 11.78,17 13.281,15.498 9.128,11.346 11.313,9.16 15.466,13.314 16.968,11.812 "/>
<polygon fill="#FFFFFF" points="16.968,5.188 15.466,3.686 11.313,7.84 9.128,5.654 13.281,1.501 11.78,0 16.968,0 "/>
</svg>
