<?xml version="1.0" encoding="utf-8"?>
<!-- Generator: Adobe Illustrator 16.0.4, SVG Export Plug-In . SVG Version: 6.00 Build 0)  -->
<!DOCTYPE svg PUBLIC "-//W3C//DTD SVG 1.1//EN" "http://www.w3.org/Graphics/SVG/1.1/DTD/svg11.dtd">
<svg version="1.1" id="Layer_1" xmlns="http://www.w3.org/2000/svg" xmlns:xlink="http://www.w3.org/1999/xlink" x="0px" y="0px"
	 width="17px" height="17px" viewBox="0 0 17 17" enable-background="new 0 0 17 17" xml:space="preserve">
<path fill="#FFFFFF" d="M16.927,9.312H15.15c-0.379,3.076-2.83,5.508-5.916,5.853v1.765H7.656v-1.775
	c-3.076-0.379-5.508-2.829-5.852-5.916H0.039V7.659h1.776c0.377-3.063,2.81-5.488,5.878-5.847l0.001-1.771h1.617v1.777
	c3.075,0.377,5.51,2.829,5.853,5.916h1.765L16.927,9.312L16.927,9.312z M8.404,3.604c-2.652,0-4.805,2.152-4.805,4.805
	s2.152,4.804,4.805,4.804c2.655,0,4.805-2.15,4.805-4.804C13.209,5.754,11.061,3.604,8.404,3.604 M8.404,10.957
	c-1.407,0-2.548-1.143-2.548-2.549C5.856,7,6.998,5.86,8.404,5.86c1.409,0,2.55,1.14,2.55,2.548
	C10.954,9.814,9.812,10.957,8.404,10.957"/>
</svg>
