<?xml version="1.0" encoding="utf-8"?>
<!-- Generator: Adobe Illustrator 16.0.4, SVG Export Plug-In . SVG Version: 6.00 Build 0)  -->
<!DOCTYPE svg PUBLIC "-//W3C//DTD SVG 1.1//EN" "http://www.w3.org/Graphics/SVG/1.1/DTD/svg11.dtd">
<svg version="1.1" id="Layer_1" xmlns="http://www.w3.org/2000/svg" xmlns:xlink="http://www.w3.org/1999/xlink" x="0px" y="0px"
	 width="17px" height="17px" viewBox="0 0 17 17" enable-background="new 0 0 17 17" xml:space="preserve">
<g>
	<path fill="#FFFFFF" d="M15.115,12.443l-0.125-0.239L13.68,9.688l-1.537-2.948L9.775,2.196C9.562,1.78,9.021,1.633,8.571,1.866
		C8.123,2.1,7.935,2.629,8.149,3.044l1.722,3.303L9.626,6.474l-3.01-5.779c-0.271-0.52-0.854-0.75-1.303-0.516
		C4.864,0.413,4.718,1.022,4.988,1.542L8,7.321L7.72,7.467L4.304,0.905C4.026,0.374,3.438,0.133,2.99,0.366
		C2.541,0.601,2.399,1.221,2.677,1.752l3.418,6.562L5.806,8.465L2.763,2.622C2.493,2.104,1.909,1.875,1.46,2.108
		S0.866,2.952,1.136,3.47l3.674,7.053l0.012,0.029l1.031,1.979l-1.98-1.539c-0.352-0.334-0.925-0.318-1.285,0.032
		c-0.29,0.285-0.352,0.703-0.182,1.031c0.041,0.077,0.097,0.151,0.162,0.215l5.604,4.401h0.006c0.478,0.315,1.214,0.328,1.886-0.021
		l4.078-2.125C15.035,14.062,15.471,13.13,15.115,12.443"/>
</g>
</svg>
