<?xml version="1.0" encoding="UTF-8"?>
<svg width="17px" height="17px" viewBox="0 0 17 17" version="1.1" xmlns="http://www.w3.org/2000/svg" xmlns:xlink="http://www.w3.org/1999/xlink">
    <!-- Generator: Sketch 41.1 (35376) - http://www.bohemiancoding.com/sketch -->
    <title>print</title>
    <desc>Created with Sketch.</desc>
    <defs></defs>
    <g id="Page-1" stroke="none" stroke-width="1" fill="none" fill-rule="evenodd">
        <g id="print" fill="#FFFFFF">
            <g id="Layer_1">
                <g id="Group">
                    <path d="M11.8344286,2.20125714 C11.8344286,2.41788571 11.6663714,2.59468571 11.4589714,2.59468571 L5.0796,2.59468571 C4.87074286,2.59468571 4.70414286,2.41837143 4.70414286,2.20125714 L4.70414286,2.20125714 C4.70414286,1.98511429 4.87122857,1.80685714 5.0796,1.80685714 L11.4584857,1.80685714 C11.6663714,1.80637143 11.8344286,1.98462857 11.8344286,2.20125714 L11.8344286,2.20125714 Z" id="Shape"></path>
                    <path d="M11.8344286,3.77351429 C11.8344286,3.99014286 11.6663714,4.16791429 11.4589714,4.16791429 L5.0796,4.16791429 C4.87074286,4.16791429 4.70414286,3.99305714 4.70414286,3.77351429 L4.70414286,3.77351429 C4.70414286,3.55737143 4.87122857,3.38202857 5.0796,3.38202857 L11.4584857,3.38202857 C11.6663714,3.38008571 11.8344286,3.55737143 11.8344286,3.77351429 L11.8344286,3.77351429 Z" id="Shape"></path>
                    <path d="M11.8344286,5.34577143 C11.8344286,5.56482857 11.6663714,5.74017143 11.4589714,5.74017143 L5.0796,5.74017143 C4.87074286,5.74017143 4.70414286,5.56531429 4.70414286,5.34577143 L4.70414286,5.34577143 C4.70414286,5.12962857 4.87122857,4.95234286 5.0796,4.95234286 L11.4584857,4.95234286 C11.6663714,4.95477143 11.8344286,5.12962857 11.8344286,5.34577143 L11.8344286,5.34577143 Z" id="Shape"></path>
                    <path d="M15.0226571,6.52702857 L13.1482857,6.52702857 L13.1482857,2.20125714 C13.1482857,1.11471429 12.3070286,0.236542857 11.2729429,0.236542857 L5.26368571,0.236542857 C4.2296,0.236542857 3.39028571,1.1152 3.39028571,2.20125714 L3.39028571,6.52702857 L1.51202857,6.52702857 C0.682914286,6.52702857 0.0111714286,7.23082857 0.0111714286,8.09734286 L0.0111714286,15.1785714 C0.0111714286,16.0470286 0.682914286,16.7508286 1.51202857,16.7508286 L15.0226571,16.7508286 C15.8546857,16.7508286 16.5254571,16.0441143 16.5254571,15.1785714 L16.5254571,8.09734286 C16.5264286,7.23082857 15.8537143,6.52702857 15.0226571,6.52702857 Z M4.13974286,2.20125714 C4.14071429,1.54942857 4.64634286,1.02291429 5.26465714,1.02097143 L11.2744,1.02097143 C11.8936857,1.02291429 12.3968857,1.5504 12.4002857,2.20125714 L12.4002857,6.52702857 L4.14168571,6.52702857 L4.13974286,2.20125714 L4.13974286,2.20125714 Z M14.2732,12.8204286 C13.8579143,12.8204286 13.5227714,12.4663429 13.5227714,12.0311429 C13.5227714,11.5978857 13.8584,11.2467143 14.2732,11.2467143 C14.6894571,11.2467143 15.0226571,11.5993429 15.0226571,12.0311429 C15.0226571,12.4687714 14.6894571,12.8204286 14.2732,12.8204286 Z M14.2732,10.4579143 C13.8579143,10.4579143 13.5227714,10.1086857 13.5227714,9.67202857 C13.5227714,9.23682857 13.8584,8.8842 14.2732,8.8842 C14.6894571,8.8842 15.0226571,9.23877143 15.0226571,9.67202857 C15.0226571,10.1091714 14.6894571,10.4579143 14.2732,10.4579143 Z" id="Shape"></path>
                </g>
            </g>
        </g>
    </g>
</svg>