<?xml version="1.0" encoding="utf-8"?>
<!-- Generator: Adobe Illustrator 16.0.4, SVG Export Plug-In . SVG Version: 6.00 Build 0)  -->
<!DOCTYPE svg PUBLIC "-//W3C//DTD SVG 1.1//EN" "http://www.w3.org/Graphics/SVG/1.1/DTD/svg11.dtd">
<svg version="1.1" id="Layer_1" xmlns="http://www.w3.org/2000/svg" xmlns:xlink="http://www.w3.org/1999/xlink" x="0px" y="0px"
	 width="73.188px" height="102.12px" viewBox="0 -10.001 73.188 102.12" enable-background="new 0 -10.001 73.188 102.12"
	 xml:space="preserve">
<path id="dot" d="M45.211,18.632c0,4.779-3.868,8.645-8.637,8.645c-4.771,0-8.639-3.865-8.639-8.645c0-4.77,3.868-8.631,8.639-8.631
	C41.343,10.001,45.211,13.862,45.211,18.632">
	
<animateTransform
		attributeType="xml"
  attributeName="transform" 
  type="translate"
  from="0 0" 
  to="0 -10" 
  dur="0.8s"
  repeatCount="indefinite"
/>
</path>
	
<path d="M58.411,76.29v7.217H14.662V76.29l21.761-21.752L58.411,76.29 M73.187,44.528l-26.604-0.043l17.181-17.18l-6.164-6.039
	L36.423,42.433L15.131,20.909L9.078,27.08L26.54,44.528H0v8.022h26.416L6.052,72.685v19.434H67.02V72.685L46.663,52.551h26.522
	L73.187,44.528L73.187,44.528z"/>

</svg>
