<?xml version="1.0" encoding="utf-8"?>
<!-- Generator: Adobe Illustrator 16.0.4, SVG Export Plug-In . SVG Version: 6.00 Build 0)  -->
<!DOCTYPE svg PUBLIC "-//W3C//DTD SVG 1.1//EN" "http://www.w3.org/Graphics/SVG/1.1/DTD/svg11.dtd">
<svg version="1.1" id="Layer_1" xmlns="http://www.w3.org/2000/svg" xmlns:xlink="http://www.w3.org/1999/xlink" x="0px" y="0px"
	 width="17px" height="17px" viewBox="20.301 20.283 17 17" enable-background="new 20.301 20.283 17 17" xml:space="preserve">
<path fill="#FFFFFF" d="M36.955,29.14c-0.01-0.612,0.079-0.904-0.294-1.001c-0.289-0.075-0.764-0.218-1.214-0.441
	c-0.296-0.146-0.595-0.329-0.87-0.514c-0.136-0.399-0.311-0.779-0.521-1.137c0.047-0.179,0.099-0.354,0.155-0.516
	c0.185-0.509,0.404-0.985,0.58-1.265c0.239-0.384-0.047-0.507-0.464-0.909c-0.441-0.425-0.58-0.699-0.934-0.484
	c-0.275,0.168-0.74,0.428-1.244,0.614c-0.183,0.068-0.376,0.128-0.57,0.183c-0.281-0.149-0.577-0.274-0.882-0.378
	c-0.213-0.312-0.418-0.646-0.569-0.962c-0.231-0.488-0.412-0.979-0.488-1.298c-0.104-0.439-0.392-0.325-0.972-0.316
	c-0.614,0.01-0.907-0.085-1.005,0.316c-0.075,0.312-0.218,0.821-0.443,1.305c-0.144,0.311-0.323,0.626-0.506,0.919
	c-0.389,0.125-0.759,0.289-1.109,0.485c-0.283-0.071-0.569-0.155-0.838-0.254c-0.502-0.185-0.967-0.446-1.242-0.613
	c-0.354-0.216-0.493,0.059-0.935,0.483c-0.417,0.403-0.703,0.524-0.462,0.91c0.173,0.279,0.395,0.754,0.578,1.265
	c0.115,0.319,0.205,0.687,0.275,1.045c-0.101,0.218-0.192,0.441-0.267,0.671c-0.261,0.165-0.538,0.322-0.812,0.451
	c-0.474,0.223-0.97,0.366-1.274,0.441c-0.391,0.097-0.299,0.389-0.308,1c-0.009,0.577-0.121,0.866,0.307,0.968
	c0.312,0.076,0.791,0.256,1.268,0.488c0.265,0.129,0.544,0.299,0.81,0.479c0.078,0.243,0.176,0.48,0.283,0.71
	c-0.071,0.369-0.163,0.751-0.282,1.08c-0.184,0.509-0.405,0.984-0.578,1.265c-0.24,0.385,0.046,0.506,0.462,0.908
	c0.44,0.426,0.581,0.699,0.935,0.484c0.275-0.168,0.739-0.428,1.242-0.613c0.287-0.105,0.595-0.195,0.895-0.269
	c0.353,0.193,0.727,0.352,1.115,0.474c0.161,0.24,0.316,0.495,0.444,0.746c0.225,0.442,0.368,0.906,0.443,1.191
	c0.098,0.364,0.391,0.278,1.005,0.287c0.579,0.008,0.868,0.113,0.972-0.287c0.075-0.292,0.257-0.739,0.488-1.185
	c0.135-0.259,0.314-0.53,0.503-0.787c0.306-0.103,0.601-0.227,0.884-0.372c0.216,0.06,0.432,0.126,0.635,0.2
	c0.504,0.187,0.967,0.446,1.243,0.614c0.354,0.216,0.493-0.059,0.934-0.484c0.416-0.401,0.704-0.523,0.464-0.908
	c-0.175-0.28-0.396-0.756-0.579-1.265c-0.062-0.172-0.116-0.358-0.164-0.55c0.216-0.368,0.396-0.76,0.535-1.171
	c0.282-0.205,0.585-0.403,0.871-0.549c0.454-0.231,0.909-0.412,1.207-0.486C37.07,30.004,36.964,29.717,36.955,29.14z
	 M28.638,32.288c-1.803,0-3.263-1.461-3.263-3.262c0-1.803,1.46-3.263,3.263-3.263c1.801,0,3.262,1.46,3.262,3.263
	C31.9,30.827,30.439,32.288,28.638,32.288z"/>
</svg>
