<?xml version="1.0" encoding="utf-8"?>
<!-- Generator: Adobe Illustrator 16.0.4, SVG Export Plug-In . SVG Version: 6.00 Build 0)  -->
<!DOCTYPE svg PUBLIC "-//W3C//DTD SVG 1.1//EN" "http://www.w3.org/Graphics/SVG/1.1/DTD/svg11.dtd">
<svg version="1.1" id="Layer_1" xmlns="http://www.w3.org/2000/svg" xmlns:xlink="http://www.w3.org/1999/xlink" x="0px" y="0px"
	 width="16.652px" height="17.194px" viewBox="18.008 18.382 16.652 17.194" enable-background="new 18.008 18.382 16.652 17.194"
	 xml:space="preserve">
<path fill="#FFFFFF" d="M31.796,29.436c0.168,0,0.333,0.017,0.495,0.041c-0.055-0.049-0.087-0.076-0.087-0.076
	c-0.412-0.909-2.915-1.698-2.915-1.698c-0.938-0.33-1.221-0.659-1.307-0.827c-0.012-0.021-0.02-0.039-0.024-0.055
	c0-0.004,0-0.006,0-0.006s-0.006-0.021-0.015-0.053V26.76c-0.037-0.13-0.125-0.46-0.125-0.543c0,0-0.006,0.027-0.016,0.073
	c-0.008-0.081-0.01-0.166-0.006-0.258c0,0-0.005,0.008-0.021,0.022c0.312-0.397,0.562-0.853,0.729-1.315
	c0.285-0.284,0.431-0.978,0.431-0.978c0.189-0.529,0.135-0.8,0.047-0.937c0.027-0.08,0.479-1.485-0.16-2.569
	c0,0-0.227-1.023-1.436-1.479c-1.115-0.684-2.777-0.273-2.777-0.273c-2.025,0.342-2.461,2.725-2.461,2.725
	c-0.121,1.09,0.172,1.77,0.185,1.797c-0.104,0.259,0.084,0.932,0.084,0.932c0.063,0.412,0.267,0.537,0.325,0.564
	c0.14,0.512,0.384,1.01,0.689,1.441c-0.002-0.002-0.005-0.004-0.007-0.006c0,0,0.034,0.167,0.003,0.4
	c-0.004-0.023-0.006-0.037-0.006-0.037c0,0.095-0.115,0.445-0.131,0.488c-0.002,0.004-0.003,0.006-0.004,0.006
	c-0.094,0.127-0.188,0.24-0.281,0.346c-0.755,0.583-2.568,1.134-2.568,1.134c-0.789,0.304-1.123,0.758-1.123,0.758
	c-1.17,1.73-1.307,3.46-1.307,3.46c0.016,0.881,0.395,0.973,0.395,0.973c2.688,1.197,6.963,1.27,6.963,1.27
	c1.383,0.028,2.638-0.072,3.707-0.223c-0.35-0.521-0.553-1.146-0.553-1.819C28.52,30.904,29.989,29.436,31.796,29.436z"/>
<path fill="#FFFFFF" d="M31.796,29.846c-1.582,0-2.866,1.284-2.866,2.865c0,1.58,1.284,2.865,2.866,2.865
	c1.58,0,2.864-1.285,2.864-2.865C34.66,31.13,33.376,29.846,31.796,29.846z M33.137,33.055h-0.932v0.997h-0.816v-0.997h-0.938V32.24
	h0.938v-0.871h0.816v0.871h0.932V33.055z"/>
</svg>
