<?xml version="1.0" encoding="UTF-8"?>
<svg width="845px" height="770px" viewBox="0 0 845 770" version="1.1" xmlns="http://www.w3.org/2000/svg" xmlns:xlink="http://www.w3.org/1999/xlink">
    <title>Artboard</title>
    <g id="Artboard" stroke="none" stroke-width="1" fill="none" fill-rule="evenodd">
        <path d="M784.8,689.2 C784.8,691.5 784.6,693.8 784.3,696.2 C784.7,693.5 785,690.9 785.4,688.2 C784.7,692.7 783.5,697 781.8,701.2 C782.8,698.8 783.8,696.4 784.8,694 C783.5,696.9 781.9,699.4 780.4,702.1 C777.8,706.5 785.4,696.4 781.9,700.2 C780.9,701.3 779.9,702.5 778.8,703.6 C778.4,704 775.8,706.8 775.4,706.7 C775.6,706.8 782.6,701.6 777.2,705.1 C774.6,706.8 771.9,708.2 769.1,709.4 C771.5,708.4 773.9,707.4 776.3,706.4 C772.1,708.1 767.8,709.2 763.3,709.8 C766,709.4 768.6,709.1 771.3,708.7 C764.1,709.5 756.8,709 749.6,709 C733,709 716.4,709 699.8,709 C675.2,709 650.6,709 626,709 C595.7,709 565.5,709 535.2,709 C502,709 468.8,709 435.6,709 C402.1,709 368.6,709 335.1,709 C303.9,709 272.7,709 241.4,709 C215.1,709 188.8,709 162.4,709 C143.7,709 124.9,709 106.2,709 C97.5,709 88.7,709.1 80,709 C78.3,709 76.6,708.9 74.9,708.7 C77.6,709.1 80.2,709.4 82.9,709.8 C78.4,709.2 74.1,708.1 69.9,706.4 C72.3,707.4 74.7,708.4 77.1,709.4 C74.3,708.2 71.5,706.8 69,705.1 C66.5,703.5 65.3,701 70.8,706.7 C69.7,705.6 68.5,704.7 67.4,703.6 C66.3,702.5 65.3,701.4 64.3,700.2 C61,696.6 68.5,706.5 65.8,702.1 C64.2,699.4 62.6,696.9 61.4,694 C62.4,696.4 63.4,698.8 64.4,701.2 C62.6,697 61.5,692.7 60.8,688.2 C61.2,690.9 61.5,693.5 61.9,696.2 C61.3,691.6 61.3,687.1 61.9,682.5 C61.5,685.2 61.2,687.8 60.8,690.5 C61.5,686.1 62.6,682 64.3,677.9 C63.3,680.3 62.3,682.7 61.3,685.1 C63.7,679.8 67.5,674.8 69,669.1 C68,671.5 67,673.9 66,676.3 C69.2,670.6 72.4,665 75.5,659.3 C84.1,643.9 92.8,628.6 101.4,613.2 C114.1,590.6 126.8,568 139.5,545.3 C154.9,517.9 170.3,490.4 185.8,463 C202.6,433.2 219.3,403.4 236.1,373.5 C252.7,343.9 269.4,314.2 286,284.6 C301.3,257.3 316.7,230 332,202.7 C344.6,180.3 357.1,158 369.7,135.6 C378.1,120.6 386.5,105.6 395,90.6 C398.3,84.7 401.7,78.8 405,72.9 C405.8,71.4 406.7,69.9 407.5,68.4 C409.4,64.7 406.4,70.5 405.5,70.8 C406.3,70.6 407.8,68.2 408.4,67.5 C409.4,66.4 410.5,65.5 411.6,64.5 C412.4,63.8 414.7,62.1 410.8,65 C406.9,68 409.7,65.9 410.7,65.2 C413.4,63.4 416.2,61.9 419.1,60.7 C416.7,61.7 414.3,62.7 411.9,63.7 C416.1,62 420.5,60.9 425,60.2 C422.3,60.6 419.7,60.9 417,61.3 C421.2,60.8 425.3,60.8 429.4,61.3 C426.7,60.9 424.1,60.6 421.4,60.2 C425.9,60.8 430.3,62 434.5,63.7 C432.1,62.7 429.7,61.7 427.3,60.7 C430.2,62 433.1,63.5 435.7,65.2 C436,65.4 437.2,66.5 437.5,66.5 C437.5,66.5 432.4,62.2 434.3,64.1 C435.5,65.3 436.8,66.4 438,67.6 C439,68.6 442.7,73.3 439.4,69 C436.4,65.2 438.4,67.6 439,68.7 C439.9,70.4 440.9,72.1 441.8,73.7 C442.2,74.4 442.6,75.2 443.1,75.9 C444.6,78.6 446.2,81.4 447.7,84.1 C455.1,97.3 462.5,110.4 469.9,123.6 C481.8,144.8 493.7,166 505.6,187.2 C520.6,213.9 535.6,240.7 550.7,267.4 C567.4,297.2 584.2,327 600.9,356.7 C618,387.1 635.1,417.6 652.2,448 C668.1,476.3 684,504.5 699.9,532.8 C713.2,556.5 726.6,580.3 739.9,604 C749.3,620.7 758.7,637.4 768,654.1 C772,661.2 776,668.4 780,675.5 C781.3,677.9 782.7,680.3 784,682.7 C783,680.3 782,677.9 781,675.5 C783.1,681.4 784.8,687.4 785.7,693.6 C785.3,690.9 785,688.3 784.6,685.6 C784.7,686.9 784.7,688 784.8,689.2 C785.2,704.9 798.3,719.9 814.8,719.2 C830.7,718.5 845.3,706 844.8,689.2 C844.4,673.4 839.2,658.7 831.6,645.1 C830.2,642.6 828.8,640.1 827.4,637.6 C820,624.4 812.6,611.2 805.2,598.1 C793,576.5 780.9,554.8 768.7,533.2 C753.2,505.6 737.7,478 722.2,450.4 C705,419.8 687.9,389.3 670.7,358.7 C653.3,327.8 635.9,296.8 618.5,265.9 C602.3,237.1 586.2,208.4 570,179.6 C556.7,156 543.5,132.4 530.2,108.8 C521.3,92.9 512.4,77.1 503.5,61.2 C499.8,54.6 496.1,48 492.4,41.4 C474.6,9.7 434.9,-6.8 399.8,4.3 C378.1,11.2 362.2,25.7 351.3,45.2 C347,52.9 342.6,60.7 338.2,68.4 C328.3,86 318.4,103.6 308.5,121.2 C294.6,146 280.6,170.8 266.7,195.6 C250.2,225 233.6,254.4 217.1,283.9 C199.6,315 182.2,346 164.7,377.1 C147.7,407.4 130.7,437.7 113.6,468 C98.7,494.5 83.8,521.1 68.9,547.6 C57.5,567.8 46.2,588 34.8,608.2 C28.5,619.4 22.2,630.7 15.9,641.9 C13.9,645.5 11.6,649.2 10.6,653.2 C11.6,650.8 12.6,648.4 13.6,646 C5.6,660.1 0.1,675.5 1,692.1 C2.1,711.9 9.6,730.1 23.2,744.7 C37.7,760.2 58.9,769 80,769.2 C91.3,769.3 102.6,769.2 113.9,769.2 C137.8,769.2 161.7,769.2 185.6,769.2 C218.1,769.2 250.5,769.2 283,769.2 C320.4,769.2 357.8,769.2 395.2,769.2 C433.4,769.2 471.5,769.2 509.7,769.2 C545.1,769.2 580.5,769.2 615.8,769.2 C644.2,769.2 672.6,769.2 701.1,769.2 C718.9,769.2 736.8,769.2 754.6,769.2 C758.3,769.2 761.9,769.2 765.6,769.2 C787.7,768.9 810.6,759.1 824.7,741.8 C837.1,726.6 844.1,709.2 844.4,689.4 C844.6,673.7 830.4,658.7 814.4,659.4 C798.3,659.9 785,672.3 784.8,689.2 Z" id="Path" fill="#ffffff" fill-rule="nonzero"></path>
        <path d="M453,495.1 C453,466.9 453,438.8 453,410.6 C453,365.9 453,321.2 453,276.5 C453,266.2 453,255.9 453,245.6 C453,229.9 439.2,214.9 423,215.6 C406.7,216.3 393,228.8 393,245.6 C393,273.8 393,301.9 393,330.1 C393,374.8 393,419.5 393,464.2 C393,474.5 393,484.8 393,495.1 C393,510.8 406.8,525.8 423,525.1 C439.2,524.4 453,512 453,495.1 L453,495.1 Z" id="Path" fill="#ffffff" fill-rule="nonzero"></path>
        <path d="M453,618 C453,608.6 453,599.3 453,589.9 C453,574.2 439.2,559.2 423,559.9 C406.7,560.6 393,573.1 393,589.9 C393,599.3 393,608.6 393,618 C393,633.7 406.8,648.7 423,648 C439.2,647.3 453,634.8 453,618 L453,618 Z" id="Path" fill="#ffffff" fill-rule="nonzero"></path>
    </g>
</svg>
