<?xml version="1.0" encoding="UTF-8"?>
<svg width="13px" height="13px" viewBox="0 0 13 13" version="1.1" xmlns="http://www.w3.org/2000/svg" xmlns:xlink="http://www.w3.org/1999/xlink">
    <title>check</title>
    <g id="check" stroke="none" stroke-width="1" fill="none" fill-rule="evenodd">
        <g id="noun_Check_2422565" fill="#000000" fill-rule="nonzero">
            <path d="M10.4017626,0 L2.59812379,0 C1.16553564,0 0,1.16555868 0,2.59812416 L0,10.4017627 C0,11.8344644 1.16553564,13 2.59812379,13 L10.4017626,13 C11.8344417,13 13,11.8344644 13,10.4017627 L13,2.59812414 C13,1.16555868 11.8344417,0 10.4017626,0 Z M12.5435,10.4017626 C12.5435,11.5826827 11.5826827,12.5435 10.4017626,12.5435 L2.59812379,12.5435 C1.4172041,12.5435 0.456499982,11.5826827 0.456499982,10.4017626 L0.456499982,2.59812414 C0.456499982,1.41720405 1.4172041,0.456499944 2.59812379,0.456499944 L10.4017626,0.456499944 C11.5826827,0.456499944 12.5435,1.41720403 12.5435,2.59812414 L12.5435,10.4017626 Z" id="Shape"></path>
            <path d="M9.63473045,3.25453927 C8.47728192,4.5284745 7.31985752,5.80238889 6.1624306,7.07632372 C5.57016212,6.48364001 4.9778945,5.89093586 4.38564848,5.29825213 C3.66136572,4.57346937 2.50616436,5.66800178 3.22900779,6.39134177 C4.02321258,7.18612111 4.81739656,7.98090125 5.61162297,8.77566015 C5.89846607,9.06271659 6.48573933,9.08660493 6.76826366,8.77566015 C8.10928506,7.29967056 9.45032809,5.8236393 10.7913495,4.34764972 C11.4738004,3.59650424 10.3218928,2.49822055 9.63473045,3.25453927 Z" id="Path"></path>
        </g>
    </g>
</svg>