<?xml version="1.0" encoding="UTF-8"?>
<svg width="17px" height="17px" viewBox="0 0 17 17" version="1.1" xmlns="http://www.w3.org/2000/svg" xmlns:xlink="http://www.w3.org/1999/xlink">
    <title>dsfilter</title>
    <g id="dsfilter" stroke="none" stroke-width="1" fill="none" fill-rule="evenodd">
        <path d="M15.3141415,1.56723805 C15.3141415,1.58840448 15.3122173,1.61149514 15.310293,1.63266157 C15.3218384,1.54799584 15.3333837,1.46140589 15.344929,1.37674015 C15.3372321,1.43061835 15.3237626,1.4806481 15.3045204,1.53067785 C15.3372321,1.453709 15.3699439,1.37674015 15.4007314,1.30169553 C15.3834135,1.33825573 15.3660955,1.37096749 15.344929,1.40367925 C15.3949588,1.33825573 15.4449885,1.27475643 15.4950183,1.20933291 C15.3757166,1.35942216 15.2583391,1.50951141 15.1390374,1.65960066 C14.8369346,2.04252067 14.5348319,2.4273649 14.2327292,2.81028491 C13.8267185,3.32597618 13.4187837,3.84166745 13.012773,4.35735872 C12.5836717,4.90191331 12.1526461,5.44839212 11.7235448,5.9929467 C11.3463975,6.47207777 10.9692501,6.95120884 10.5921028,7.4303399 C10.3477267,7.74013951 10.1052748,8.04993912 9.86089874,8.3578145 C9.81471743,8.41746536 9.7666119,8.47711621 9.7204306,8.53676707 C9.71850637,8.53869129 9.71658215,8.54253973 9.71273371,8.54446395 C9.71273371,8.54446395 9.56264446,8.73881029 9.56264446,8.73881029 C9.49722094,8.84849089 9.46450918,8.97164105 9.44911541,9.09671542 C9.34328325,9.87987343 9.43372164,9.17753271 9.43179742,9.22563824 C9.43179742,9.22948668 9.43179742,9.2314109 9.43179742,9.23525935 C9.4298732,9.27566799 9.43179742,9.31415241 9.43179742,9.35456106 C9.43179742,9.84523745 9.43179742,10.3339896 9.43179742,10.824666 C9.43179742,11.5058403 9.43179742,12.1889388 9.43179742,12.8701131 C9.43179742,13.3049871 9.43179742,13.7417853 9.43179742,14.1766593 C9.43179742,14.2247648 9.43179742,14.2709461 9.42410054,14.3190516 C9.43564586,14.2343859 9.44719119,14.147796 9.45873652,14.0631302 C9.45103963,14.1093115 9.43757009,14.1535686 9.4202521,14.1978257 C9.45296385,14.1208569 9.48567561,14.043888 9.51646315,13.9688434 C9.49722094,14.0111762 9.47413029,14.0496607 9.44719119,14.0881451 C9.49722094,14.0227216 9.54725069,13.9592223 9.59728044,13.8937988 C9.56841712,13.930359 9.53762959,13.9611465 9.50106938,13.991934 C9.5664929,13.9419043 9.6299922,13.8918745 9.69541572,13.8418448 C9.61074999,13.9053441 9.5029936,13.9534496 9.40870677,14.0073278 C9.24129953,14.1035389 9.07389229,14.2016741 8.90648505,14.2978852 C8.49855016,14.5326402 8.0925395,14.7693194 7.68460461,15.0040744 C7.58839356,15.0598768 7.49410672,15.1195276 7.39597144,15.1676332 C7.47294029,15.1349214 7.54990913,15.1022096 7.62495376,15.0714221 C7.57107557,15.0945128 7.5191216,15.1079823 7.46139496,15.1176034 C7.54606069,15.1060581 7.63265064,15.0945128 7.71731637,15.0829674 C7.66728662,15.0868159 7.6191811,15.0868159 7.56722712,15.0810432 C7.65189285,15.0925885 7.73848281,15.1041339 7.82314854,15.1156792 C7.77119457,15.1079823 7.72501326,15.0945128 7.67690773,15.0733463 C7.75387658,15.1060581 7.83084542,15.1387698 7.90589005,15.1695574 C7.85970874,15.148391 7.81737587,15.1233761 7.77889145,15.0925885 C7.84431497,15.1426183 7.90781427,15.192648 7.97323779,15.2426778 C7.94052603,15.2157387 7.91166271,15.1868754 7.88472361,15.1560878 C7.93475336,15.2215114 7.98478311,15.2850107 8.03481286,15.3504342 C8.00402533,15.3100255 7.97901045,15.2696169 7.95784402,15.2234356 C7.99055578,15.3004044 8.02326754,15.3773733 8.05405508,15.4524179 C8.03481286,15.4043124 8.02134332,15.3562068 8.01172221,15.3061771 C8.02326754,15.3908428 8.03481286,15.4774328 8.04635819,15.5620985 C8.03481286,15.4581906 8.04058553,15.3504342 8.04058553,15.2465262 C8.04058553,15.0252408 8.04058553,14.8039554 8.04058553,14.5826699 C8.04058553,13.8899503 8.04058553,13.1991549 8.04058553,12.5064353 C8.04058553,11.7925493 8.04058553,11.0786632 8.04058553,10.3647772 C8.04058553,9.98955404 8.04828241,9.61240669 8.04058553,9.23718357 C8.03673709,9.10248809 8.00979799,8.97548949 7.95784402,8.85233934 C7.90589005,8.72918918 7.83661809,8.64067501 7.75387658,8.53484285 C7.73655859,8.51367641 7.7192406,8.49058576 7.7019226,8.46941933 C7.61725687,8.36166294 7.53066692,8.25390656 7.44600119,8.14422595 C7.12080782,7.73244262 6.79753866,7.3206593 6.47234529,6.90887597 C6.02592598,6.34315495 5.58143089,5.77743393 5.13501159,5.21363713 C4.67127429,4.62674968 4.20946121,4.03793801 3.74572391,3.45105056 C3.3628039,2.96614683 2.97988389,2.47931888 2.59888811,1.99441514 C2.40069333,1.74234217 2.20249855,1.4902692 2.00430377,1.23819623 C1.99468266,1.2266509 1.98698578,1.21510558 1.97736467,1.20356025 C2.02739442,1.26898377 2.07742417,1.33248307 2.12745392,1.39790659 C2.10628749,1.36327061 2.08704528,1.33055885 2.07165151,1.29592287 C2.10436327,1.37289171 2.13707503,1.44986056 2.16786257,1.52490518 C2.14862036,1.47487543 2.13515081,1.42484568 2.12745392,1.37096749 C2.13899925,1.45563322 2.15054458,1.54222317 2.1620899,1.6268889 C2.15824146,1.57878338 2.15824146,1.53067785 2.16401412,1.48257232 C2.1524688,1.56723805 2.14092347,1.653828 2.12937814,1.73849373 C2.13707503,1.68653976 2.15054458,1.64035845 2.17171101,1.59225292 C2.13899925,1.66922177 2.10628749,1.74619062 2.07549995,1.82123524 C2.09666638,1.77505393 2.12168126,1.73464529 2.1524688,1.69423664 C2.10243905,1.75966016 2.0524093,1.82315946 2.00237955,1.88858298 C2.02931864,1.85587122 2.05818196,1.8270079 2.0889695,1.80199303 C2.02354598,1.85202278 1.96004668,1.90205253 1.89462316,1.95208228 C1.93503181,1.92129474 1.97544045,1.89627987 2.02162176,1.87511343 C1.94465291,1.90782519 1.86768407,1.94053695 1.79263944,1.97132449 C1.84074497,1.95208228 1.8888505,1.93861273 1.93888025,1.92899163 C1.85421452,1.94053695 1.76762457,1.95208228 1.68295884,1.96362761 C1.8253512,1.94630962 1.97544045,1.95785494 2.11975704,1.95785494 C2.45457152,1.95785494 2.79131022,1.95785494 3.1261247,1.95785494 C3.62834642,1.95785494 4.13056814,1.95785494 4.63086564,1.95785494 C5.24276797,1.95785494 5.85274608,1.95785494 6.4646484,1.95785494 C7.13812581,1.95785494 7.81160321,1.95785494 8.48508061,1.95785494 C9.16433068,1.95785494 9.84358075,1.95785494 10.524755,1.95785494 C11.1558996,1.95785494 11.7851199,1.95785494 12.4162644,1.95785494 C12.9511979,1.95785494 13.4842072,1.95785494 14.0191407,1.95785494 C14.4001364,1.95785494 14.779208,1.95785494 15.1602038,1.95785494 C15.3372321,1.95785494 15.5142605,1.95593072 15.6912888,1.95785494 C15.7240006,1.95785494 15.7567124,1.95977916 15.7894241,1.96362761 C15.7047584,1.95208228 15.6181684,1.94053695 15.5335027,1.92899163 C15.5854567,1.93668851 15.631638,1.95015806 15.6797435,1.97132449 C15.6027747,1.93861273 15.5258058,1.90590097 15.4507612,1.87511343 C15.4969425,1.89627987 15.5373511,1.92129474 15.5777598,1.95208228 C15.5123363,1.90205253 15.448837,1.85202278 15.3834135,1.80199303 C15.4161252,1.82893213 15.4430643,1.85779544 15.4700034,1.88858298 C15.4199737,1.82315946 15.3699439,1.75966016 15.3199142,1.69423664 C15.3507017,1.73464529 15.3757166,1.77505393 15.396883,1.82123524 C15.3641712,1.74426639 15.3314595,1.66729755 15.3006719,1.59225292 C15.3199142,1.64035845 15.3333837,1.68846398 15.3430048,1.73849373 C15.3314595,1.653828 15.3199142,1.56723805 15.3083688,1.48257232 C15.3122173,1.51528408 15.3141415,1.54222317 15.3141415,1.56723805 C15.3199142,1.8173868 15.4180494,2.06945977 15.5950778,2.24841234 C15.762485,2.41581958 16.0357244,2.54089395 16.2762521,2.52934863 C16.5244766,2.5178033 16.7823222,2.43698601 16.9574264,2.24841234 C17.128682,2.06176288 17.2460595,1.8270079 17.2383626,1.56723805 C17.23259,1.29977131 17.1729391,1.06886477 17.049789,0.834109789 C16.9304873,0.605127472 16.7534589,0.445417116 16.5514157,0.297252087 C16.3147365,0.122147962 16.0010884,0.0471033371 15.710531,0.0413306737 C15.6797435,0.0413306737 15.6470317,0.0413306737 15.6162442,0.0413306737 C15.4199737,0.0413306737 15.2237031,0.0413306737 15.0255083,0.0413306737 C14.2115628,0.0413306737 13.3976172,0.0413306737 12.5836717,0.0413306737 C11.4522296,0.0413306737 10.3207876,0.0413306737 9.18934556,0.0413306737 C8.02326754,0.0413306737 6.8552653,0.0413306737 5.68918728,0.0413306737 C4.76940957,0.0413306737 3.85155608,0.0413306737 2.93177837,0.0413306737 C2.54308569,0.0413306737 2.15439302,0.0336337891 1.76762457,0.0413306737 C1.47706717,0.0471033371 1.16534335,0.122147962 0.926739923,0.297252087 C0.728545144,0.443492895 0.561137904,0.591657924 0.439911971,0.812943356 C0.312913375,1.04577412 0.253262519,1.27860488 0.239792971,1.54222317 C0.228247644,1.80968991 0.310989154,2.0810051 0.434139308,2.31576008 C0.484169058,2.41004691 0.557289461,2.4908642 0.622712981,2.57168149 C0.630409865,2.58322682 0.640030971,2.59284792 0.647727856,2.60439325 C0.784347558,2.77757315 0.922891481,2.95267728 1.05951118,3.12585718 C1.6617924,3.8916972 2.26599785,4.655613 2.86827907,5.42145302 C3.58601356,6.33160962 4.30182383,7.23984201 5.01955832,8.14999862 C5.46020496,8.70802275 5.90085161,9.26797111 6.33957403,9.82599524 C6.36074046,9.85293434 6.38190689,9.87987343 6.40307333,9.90681253 C6.30878649,9.67975443 6.21449965,9.45269634 6.12213704,9.22563824 C6.12213704,9.50849875 6.12213704,9.79328348 6.12213704,10.076144 C6.12213704,10.7207581 6.12213704,11.3634479 6.12213704,12.008062 C6.12213704,12.6988574 6.12213704,13.3896528 6.12213704,14.0804482 C6.12213704,14.5153222 6.12213704,14.948272 6.12213704,15.3831459 C6.12213704,15.4139335 6.12213704,15.4466452 6.12213704,15.4774328 C6.12983392,15.8834434 6.27992317,16.2605908 6.56085946,16.5530724 C6.73981203,16.7397218 6.98996078,16.8821142 7.24010953,16.9533104 C7.36710812,16.9898706 7.50565205,17.0052644 7.63649909,17.0092349 C7.75002813,17.011037 7.8654814,16.9898706 7.97516201,16.9706284 C8.02134332,16.9629315 8.06367618,16.9533104 8.10793327,16.9379166 C8.24647719,16.8878869 8.36000624,16.8359329 8.48123217,16.7647367 C9.01616565,16.4549371 9.54917491,16.1470617 10.0841084,15.8372621 C10.2303492,15.7525964 10.3746658,15.662158 10.5228308,15.5832649 C11.0558401,15.3004044 11.3560186,14.7693194 11.3560186,14.1689624 C11.3560186,13.7109977 11.3560186,13.2549573 11.3560186,12.7969927 C11.3560186,12.0965762 11.3560186,11.3961597 11.3560186,10.6957432 C11.3560186,10.2281575 11.3560186,9.76057172 11.3560186,9.29298598 C11.3560186,9.26989533 11.3560186,9.24488045 11.3560186,9.2217898 C11.2617317,9.44884789 11.1674449,9.67590599 11.0750823,9.90296409 C11.2752013,9.64704267 11.4772445,9.39304548 11.6773635,9.13712407 C12.1526461,8.53484285 12.6279288,7.9306374 13.1032114,7.32835618 C13.6747051,6.60292481 14.2461987,5.87941765 14.8176924,5.15398628 C15.2948993,4.54785662 15.7740303,3.94172695 16.2512372,3.33559729 C16.4532804,3.07967588 16.6572479,2.82375446 16.8573669,2.56590883 C16.9343357,2.46969777 17.0113045,2.37925938 17.0632585,2.26765455 C17.1748633,2.03097535 17.2306658,1.83085635 17.2383626,1.56338961 C17.2460595,1.32093774 17.1267578,1.053471 16.9574264,0.882215318 C16.7900191,0.714808077 16.5167797,0.589733702 16.2762521,0.601279029 C15.7432428,0.630142347 15.3295353,1.02845613 15.3141415,1.56723805 Z" id="Path" fill="#FFFFFF" fill-rule="nonzero"></path>
    </g>
</svg>