<?xml version="1.0" encoding="utf-8"?>
<!-- Generator: Adobe Illustrator 16.0.4, SVG Export Plug-In . SVG Version: 6.00 Build 0)  -->
<!DOCTYPE svg PUBLIC "-//W3C//DTD SVG 1.1//EN" "http://www.w3.org/Graphics/SVG/1.1/DTD/svg11.dtd">
<svg version="1.1" id="Layer_1" xmlns="http://www.w3.org/2000/svg" xmlns:xlink="http://www.w3.org/1999/xlink" x="0px" y="0px"
	 width="17px" height="17px" viewBox="23.5 23.5 17 17" enable-background="new 23.5 23.5 17 17" xml:space="preserve">
<path fill="#FFFFFF" d="M39.729,29.704h-3.087c-0.772,0-0.772,0-0.772,0.772v3.087c0,0.771,0,0.771,0.772,0.771h3.087
	c0.771,0,0.771,0,0.771-0.771v-3.087C40.5,29.704,40.5,29.704,39.729,29.704z M33.554,23.529h-3.087c-0.771,0-0.771,0-0.771,0.772
	v1.543c0,0.771,0,0.771,0.771,0.771h3.087c0.771,0,0.771,0,0.771-0.771v-1.543C34.325,23.529,34.325,23.529,33.554,23.529z
	 M39.729,35.878h-3.087c-0.772,0-0.772,0-0.772,0.771v1.544c0,0.771,0,0.771,0.772,0.771h3.087c0.771,0,0.771,0,0.771-0.771v-1.544
	C40.5,35.878,40.5,35.878,39.729,35.878z M33.554,28.16h-3.087c-0.771,0-0.771,0-0.771,0.771v3.087c0,0.772,0,0.772,0.771,0.772
	h3.087c0.771,0,0.771,0,0.771-0.772v-3.087C34.325,28.16,34.325,28.16,33.554,28.16z M27.379,23.529h-3.086
	c-0.772,0-0.772,0-0.772,0.772v4.63c0,0.772,0,0.772,0.772,0.772h3.087c0.771,0,0.771,0,0.771-0.772v-4.63
	C28.151,23.529,28.151,23.529,27.379,23.529z M33.554,34.334h-3.087c-0.771,0-0.771,0-0.771,0.772v4.631
	c0,0.771,0,0.771,0.771,0.771h3.087c0.771,0,0.771,0,0.771-0.771v-4.631C34.325,34.334,34.325,34.334,33.554,34.334z M27.379,31.247
	h-3.086c-0.772,0-0.772,0-0.772,0.772v3.087c0,0.771,0,0.771,0.772,0.771h3.087c0.771,0,0.771,0,0.771-0.771v-3.087
	C28.151,31.247,28.151,31.247,27.379,31.247z M27.379,37.422h-3.086c-0.772,0-0.772,0-0.772,0.771v1.544
	c0,0.771,0,0.771,0.772,0.771h3.087c0.771,0,0.771,0,0.771-0.771v-1.544C28.151,37.422,28.151,37.422,27.379,37.422z M39.729,23.529
	h-3.087c-0.772,0-0.772,0-0.772,0.772v3.087c0,0.772,0,0.772,0.772,0.772h3.087c0.771,0,0.771,0,0.771-0.772v-3.087
	C40.5,23.529,40.5,23.529,39.729,23.529z"/>
</svg>
