<?xml version="1.0" encoding="utf-8"?>
<!-- Generator: Adobe Illustrator 16.0.4, SVG Export Plug-In . SVG Version: 6.00 Build 0)  -->
<!DOCTYPE svg PUBLIC "-//W3C//DTD SVG 1.1//EN" "http://www.w3.org/Graphics/SVG/1.1/DTD/svg11.dtd">
<svg version="1.1" id="Layer_1" xmlns="http://www.w3.org/2000/svg" xmlns:xlink="http://www.w3.org/1999/xlink" x="0px" y="0px"
	 width="17px" height="17px" viewBox="4.991 -0.74 17 17" enable-background="new 4.991 -0.74 17 17" xml:space="preserve">
<title>add-like</title>
<path fill="#FFFFFF" d="M18.935,8.611v1.021c0,0.094-0.076,0.17-0.17,0.17h-1.872v1.872c0,0.094-0.076,0.169-0.17,0.169h-1.021
	c-0.094,0-0.17-0.076-0.17-0.169V9.802h-1.871c-0.094,0-0.17-0.076-0.17-0.17V8.611c0-0.094,0.076-0.17,0.17-0.17h1.871V6.57
	c0-0.094,0.076-0.17,0.17-0.17h1.021c0.094,0,0.17,0.076,0.17,0.17v1.872h1.872C18.859,8.441,18.935,8.517,18.935,8.611z
	 M20.497,1.344c-1.932-1.854-5.001-1.791-6.855,0.142c0,0,0,0,0,0l-0.15,0.15l-0.204-0.208c-1.884-1.903-4.954-1.919-6.858-0.036
	C4.526,3.277,4.51,6.347,6.394,8.25l7.203,7.278l2.249-2.344c-2.245-0.207-3.898-2.194-3.691-4.44
	c0.207-2.245,2.195-3.898,4.44-3.691c1.901,0.175,3.427,1.645,3.674,3.538l0.378-0.395C22.496,6.262,22.429,3.195,20.497,1.344z"/>
</svg>
