<?xml version="1.0" encoding="utf-8"?>
<!-- Generator: Adobe Illustrator 16.0.4, SVG Export Plug-In . SVG Version: 6.00 Build 0)  -->
<!DOCTYPE svg PUBLIC "-//W3C//DTD SVG 1.1//EN" "http://www.w3.org/Graphics/SVG/1.1/DTD/svg11.dtd">
<svg version="1.1" id="Layer_1" xmlns="http://www.w3.org/2000/svg" xmlns:xlink="http://www.w3.org/1999/xlink" x="0px" y="0px"
	 width="17px" height="17px" viewBox="18.64 23.537 17 17" enable-background="new 18.64 23.537 17 17" xml:space="preserve">
<title>right-6</title>
<path fill="#FFFFFF" d="M22.74,38.537c-0.608-0.001-1.101-0.495-1.1-1.104c0.001-0.377,0.194-0.727,0.512-0.928l7.301-4.46
	l-7.277-4.459c-0.521-0.318-0.685-0.998-0.367-1.52c0.318-0.52,0.999-0.685,1.519-0.367l8.796,5.366
	c0.527,0.329,0.688,1.026,0.357,1.552c-0.09,0.145-0.214,0.269-0.357,0.359l-8.796,5.365C23.155,38.461,22.95,38.53,22.74,38.537z
	 M30.948,32.977L30.948,32.977z"/>
</svg>
