<?xml version="1.0" encoding="utf-8"?>
<!-- Generator: Adobe Illustrator 16.0.4, SVG Export Plug-In . SVG Version: 6.00 Build 0)  -->
<!DOCTYPE svg PUBLIC "-//W3C//DTD SVG 1.1//EN" "http://www.w3.org/Graphics/SVG/1.1/DTD/svg11.dtd">
<svg version="1.1" id="Layer_1" xmlns="http://www.w3.org/2000/svg" xmlns:xlink="http://www.w3.org/1999/xlink" x="0px" y="0px"
	 width="64px" height="64px" viewBox="8 0 64 64" enable-background="new 8 0 64 64" xml:space="preserve">
<path fill="#FFFFFF" stroke="#FFFFFF" stroke-miterlimit="10" d="M62.627,9.373c12.497,12.497,12.497,32.758,0,45.254
	c-12.496,12.497-32.758,12.497-45.254,0c-12.497-12.496-12.497-32.758,0-45.254S50.131-3.124,62.627,9.373z M27.134,42.645
	c-3.064-3.274-5.547-6.854-7.429-10.577l-7.568,7.55c1.15,4.215,3.269,8.221,6.36,11.662L27.134,42.645z M28.774,22.983
	l-6.737,6.737c1.808,3.815,4.243,7.431,7.304,10.716l8.442-8.442L28.774,22.983L28.774,22.983z M18.502,12.711
	c-0.253,4.505,0.487,9.26,2.205,13.88l5.837-5.837L18.502,12.711z M11.372,35.926l6.932-6.932
	c-1.622-3.953-2.602-8.141-2.895-12.127C11.717,22.71,10.514,29.666,11.372,35.926z M59.28,10.498
	c-3.442-3.092-7.447-5.21-11.662-6.36l-7.551,7.569c3.723,1.882,7.304,4.363,10.577,7.428L59.28,10.498z M39.994,29.784l8.443-8.442
	c-3.285-3.062-6.901-5.496-10.717-7.304l-6.736,6.736L39.994,29.784z M28.754,18.544l5.838-5.838
	c-4.621-1.718-9.376-2.457-13.88-2.205L28.754,18.544z M24.867,7.411c3.986,0.292,8.174,1.272,12.127,2.894l6.933-6.932
	C37.666,2.513,30.711,3.716,24.867,7.411z M20.72,53.503c3.441,3.09,7.447,5.21,11.661,6.358l7.551-7.566
	c-3.723-1.882-7.304-4.365-10.577-7.43L20.72,53.503L20.72,53.503z M40.006,34.216l-8.442,8.442
	c3.285,3.062,6.901,5.497,10.716,7.305l6.736-6.737L40.006,34.216z M51.246,45.455l-5.838,5.839
	c4.621,1.718,9.375,2.457,13.88,2.204L51.246,45.455L51.246,45.455z M55.133,56.59c-3.988-0.294-8.174-1.272-12.127-2.894
	l-6.932,6.932C42.334,61.485,49.289,60.282,55.133,56.59z M52.865,21.357c3.065,3.272,5.547,6.854,7.428,10.577l7.568-7.552
	c-1.148-4.214-3.268-8.22-6.359-11.661L52.865,21.357L52.865,21.357z M51.226,41.017l6.737-6.737
	c-1.808-3.814-4.242-7.43-7.304-10.716l-8.443,8.443L51.226,41.017z M61.498,51.288c0.253-4.505-0.486-9.259-2.204-13.88
	l-5.838,5.838L61.498,51.288z M68.628,28.074l-6.932,6.932c1.621,3.953,2.601,8.14,2.893,12.127
	C68.283,41.288,69.486,34.333,68.628,28.074z"/>
</svg>
