<?xml version="1.0" encoding="UTF-8"?>
<svg width="320px" height="69px" viewBox="0 0 320 69" version="1.1" xmlns="http://www.w3.org/2000/svg">
    <title>mim</title>
    <g id="mim" stroke="none" stroke-width="1" fill="none" fill-rule="evenodd">
        <g id="miljoeministeriet_dk_rgb" fill="#003127">
            <g id="Group-19" transform="translate(0.000000, 0.526382)">
                <path d="M34.0218247,7.38337079 C34.0218247,8.10462921 32.3650157,8.76620225 31.0598472,8.76620225 C29.7539596,8.76620225 28.1021843,8.10462921 28.0993079,7.38337079 C28.0993079,6.65995506 29.7539596,6.00125843 31.0598472,6.00125843 C32.3650157,6.00125843 34.0175101,6.66139326 34.0218247,7.38337079" id="Fill-1"></path>
                <path d="M35.3209528,9.75841798 C33.8295371,9.7742382 32.6494921,10.6227775 32.4100315,12.3975191 C32.3791101,12.8649348 32.335964,13.4049798 32.335964,13.4049798 C32.335964,13.4049798 31.0020315,13.0777888 31.0020315,14.4742831 C31.0020315,17.1594067 33.2118292,18.519227 35.3209528,18.533609" id="Fill-3"></path>
                <path d="M35.3209528,9.75841798 C33.8295371,9.7742382 32.6494921,10.6227775 32.4100315,12.3975191 C32.3791101,12.8649348 32.335964,13.4049798 32.335964,13.4049798 C32.335964,13.4049798 31.0020315,13.0777888 31.0020315,14.4742831 C31.0020315,17.1594067 33.2118292,18.519227 35.3209528,18.533609" id="Fill-5"></path>
                <path d="M58.144,62.5659685 C59.3326742,62.5659685 59.402427,56.3910472 58.144,56.3910472 L12.497618,56.3910472 C11.239191,56.3910472 11.3089438,62.5659685 12.497618,62.5659685 L58.144,62.5659685 Z" id="Fill-7"></path>
                <path d="M36.6201528,7.38337079 C36.6201528,8.10462921 38.2769618,8.76620225 39.5821303,8.76620225 C40.8872989,8.76620225 42.5397933,8.10462921 42.5426697,7.38337079 C42.5426697,6.65995506 40.8872989,6.00125843 39.5821303,6.00125843 C38.2769618,6.00125843 36.6244674,6.66139326 36.6201528,7.38337079" id="Fill-9"></path>
                <path d="M35.3209528,6.03368989 L35.3209528,6.03512809 C36.0436494,6.03512809 36.7059416,4.3783191 36.7059416,3.07315056 C36.7059416,1.76870112 36.0436494,0.116206742 35.3209528,0.113330337 C34.5982562,0.116206742 33.935964,1.76870112 33.935964,3.07315056 C33.935964,4.3783191 34.5982562,6.03512809 35.3209528,6.03512809 L35.3209528,6.03368989 Z" id="Fill-11"></path>
                <path d="M35.3209528,18.5336809 C37.4300764,18.5185798 39.6398742,17.1594787 39.6398742,14.473636 C39.6398742,13.0778607 38.3059416,13.4050517 38.3059416,13.4050517 C38.3059416,13.4050517 38.2627955,12.8650067 38.2318742,12.397591 C37.9924135,10.6228494 36.8123685,9.77431011 35.3209528,9.75848989" id="Fill-13"></path>
                <path d="M35.3209528,18.5336809 C37.4300764,18.5185798 39.6398742,17.1594787 39.6398742,14.473636 C39.6398742,13.0778607 38.3059416,13.4050517 38.3059416,13.4050517 C38.3059416,13.4050517 38.2627955,12.8650067 38.2318742,12.397591 C37.9924135,10.6228494 36.8123685,9.77431011 35.3209528,9.75848989" id="Fill-15"></path>
                <path d="M35.3188674,20.4353438 C34.1244404,20.4353438 33.5865528,21.2241978 33.0508225,23.2002876 C32.7452045,24.3393438 32.2418337,24.7226247 31.4206202,24.7226247 C31.0567551,24.7226247 30.8151371,24.6917034 30.1132944,24.6917034 C29.3769348,24.6917034 28.7843955,25.257636 28.7843955,25.9932764 C28.7843955,27.4372315 30.8417438,28.5611865 30.8417438,29.9289169 C30.8417438,31.408827 28.0300584,31.231209 28.0300584,32.7190292 C28.0300584,35.1819506 31.490373,35.7982202 31.490373,37.5362876 C31.490373,38.9982202 29.1827775,38.5135461 29.1827775,40.0013663 C29.1827775,41.3518382 33.1982382,43.0064899 33.1982382,46.4524225 C33.1982382,48.3292764 30.4131596,48.1243326 28.6930697,46.4200629 C26.4106427,44.1649618 26.7047551,42.0040629 25.5549124,42.0040629 C25.083182,42.0040629 24.5165303,42.6124225 23.9067326,42.6124225 C23.2307775,42.6124225 22.4088449,41.8264449 22.4088449,40.6312989 C22.4088449,39.3031191 23.1682157,37.197591 23.1682157,36.0535011 C23.1682157,35.3236135 22.7511371,34.7770966 22.1003506,34.7770966 C21.4488449,34.7770966 20.8670921,34.8482876 20.4262831,34.8482876 C19.5985978,34.8482876 18.946373,34.0730966 18.946373,32.8757933 C18.946373,31.1233438 20.1256989,28.6208719 20.1256989,27.2603326 C20.1256989,25.8437034 19.5036764,25.6862202 18.4192719,25.5690067 C17.2694292,25.4438831 16.9774742,25.2475685 16.9774742,24.6658157 C16.9774742,23.4677933 18.7831371,19.9470742 23.7859236,19.3178607 C23.7859236,19.3178607 26.2502831,21.6930517 28.4715865,21.6930517 C29.4071371,21.6930517 30.2686202,21.3061753 30.2686202,20.479209 C30.2686202,18.9324225 26.0719461,18.1378157 23.3580584,18.1378157 C19.038418,18.1378157 12.6585528,20.2908045 12.6585528,26.5958831 C12.6585528,31.9186697 16.755991,38.1669393 20.3924854,43.2445124 C21.5150022,44.8114337 22.2506427,45.851973 22.2506427,46.9593888 C22.2506427,48.717591 18.9787326,48.8326472 17.1572494,47.011164 C14.857564,44.891973 15.0999011,40.4953888 13.5336989,40.4953888 C12.5844854,40.4953888 12.0041708,41.4223101 11.0290697,41.4223101 C8.60713708,41.4223101 8.26053034,35.4523326 7.6593618,33.2597933 C7.36884494,32.2077483 6.85468764,31.892782 6.32758652,31.892782 C5.71347416,31.892782 5.38915955,32.0883775 4.73262022,32.0883775 C3.64533933,32.0883775 3.38718202,29.4499955 3.38718202,29.1012315 C3.38718202,27.2502652 4.13073258,25.5416809 5.31940674,24.7053663 C6.89927191,25.5956135 7.94844045,25.7984 9.04578876,25.5373663 C9.11554157,25.5179506 9.7742382,25.3626247 9.7742382,24.809636 C9.7742382,24.2602427 8.93001348,23.3973213 6.73028315,23.3973213 C4.50250787,23.3973213 0.249024719,24.8038831 0.249024719,29.5161528 C0.249024719,35.4983551 10.5012494,45.4629393 10.5012494,45.4629393 C11.8783281,46.8378607 12.467991,48.617636 12.467991,49.8170966 L12.467991,52.7064449 L58.1740584,52.7064449 L58.1740584,49.8170966 C58.1740584,48.617636 58.7644404,46.8378607 60.1408,45.4629393 C60.1408,45.4629393 70.3923056,35.4983551 70.3923056,29.5161528 C70.3923056,24.8038831 66.1388225,23.3973213 63.9117663,23.3973213 C61.712036,23.3973213 60.8678112,24.2602427 60.8678112,24.809636 C60.8678112,25.3626247 61.5265079,25.5179506 61.5955416,25.5373663 C62.6928899,25.7984 63.7420584,25.5956135 65.3226427,24.7053663 C66.5105978,25.5416809 67.2548674,27.2502652 67.2548674,29.1012315 C67.2548674,29.4499955 66.9967101,32.0883775 65.9087101,32.0883775 C65.2528899,32.0883775 64.9285753,31.892782 64.3144629,31.892782 C63.7873618,31.892782 63.2732045,32.2077483 62.9826876,33.2597933 C62.3815191,35.4523326 62.0341933,41.4223101 59.6129798,41.4223101 C58.6385978,41.4223101 58.057564,40.4953888 57.1083506,40.4953888 C55.5421483,40.4953888 55.7844854,44.891973 53.4848,47.011164 C51.6633169,48.8326472 48.3914067,48.717591 48.3914067,46.9593888 C48.3914067,45.851973 49.1270472,44.8114337 50.249564,43.2445124 C53.8860584,38.1669393 57.9834966,31.9186697 57.9834966,26.5958831 C57.9834966,20.2908045 51.6036315,18.1378157 47.283991,18.1378157 C44.5701034,18.1378157 40.3734292,18.9324225 40.3734292,20.479209 C40.3734292,21.3061753 41.2349124,21.6930517 42.1704629,21.6930517 C44.3917663,21.6930517 46.8561258,19.3178607 46.8561258,19.3178607 C51.8589124,19.9470742 53.6645753,23.4677933 53.6645753,24.6658157 C53.6645753,25.2475685 53.3726202,25.4438831 52.2227775,25.5690067 C51.138373,25.6862202 50.5163506,25.8437034 50.5163506,27.2603326 C50.5163506,28.6208719 51.6949573,31.1233438 51.6949573,32.8757933 C51.6949573,34.0730966 51.0434517,34.8482876 50.2157663,34.8482876 C49.7749573,34.8482876 49.1932045,34.7770966 48.5416989,34.7770966 C47.8901933,34.7770966 47.4738337,35.3236135 47.4738337,36.0535011 C47.4738337,37.197591 48.2332045,39.3031191 48.2332045,40.6312989 C48.2332045,41.8264449 47.4105528,42.6124225 46.7353169,42.6124225 C46.1255191,42.6124225 45.5588674,42.0040629 45.0871371,42.0040629 C43.9372944,42.0040629 44.2306876,44.1649618 41.9489798,46.4200629 C40.2288899,48.1243326 37.4438112,48.3292764 37.4438112,46.4524225 C37.4438112,43.0064899 41.4592719,41.3518382 41.4592719,40.0013663 C41.4592719,38.5135461 39.1516764,38.9982202 39.1516764,37.5362876 C39.1516764,35.7982202 42.611991,35.1819506 42.611991,32.7190292 C42.611991,31.231209 39.7995865,31.408827 39.7995865,29.9289169 C39.7995865,28.5611865 41.8576539,27.4372315 41.8576539,25.9932764 C41.8576539,25.257636 41.2651146,24.6917034 40.5287551,24.6917034 C39.8276315,24.6917034 39.5852944,24.7226247 39.2214292,24.7226247 C38.3994966,24.7226247 37.8968449,24.3393438 37.591227,23.2002876 C37.0554966,21.2241978 36.517609,20.4353438 35.323182,20.4353438 L35.3188674,20.4353438 Z" id="Fill-17"></path>
            </g>
            <text id="Miljøministeriet" font-family="LucidaGrande, Lucida Grande" font-size="30" font-weight="normal">
                <tspan x="93.8475865" y="61.7693888">Miljøministeriet</tspan>
            </text>
        </g>
    </g>
</svg>
