<?xml version="1.0" encoding="utf-8"?>
<!-- Generator: Adobe Illustrator 16.0.4, SVG Export Plug-In . SVG Version: 6.00 Build 0)  -->
<!DOCTYPE svg PUBLIC "-//W3C//DTD SVG 1.1//EN" "http://www.w3.org/Graphics/SVG/1.1/DTD/svg11.dtd">
<svg version="1.1" id="Layer_1" xmlns="http://www.w3.org/2000/svg" xmlns:xlink="http://www.w3.org/1999/xlink" x="0px" y="0px"
	 width="17px" height="17px" viewBox="17 17 17 17" enable-background="new 17 17 17 17" xml:space="preserve">
<path fill="#3EA447" d="M25.5,25.179c-0.479,0-0.866,0.388-0.866,0.865c0,0.327,0.179,0.61,0.444,0.758l-0.003,0.882
	c0,0.266,0.185,0.484,0.412,0.484c0.226,0,0.413-0.219,0.413-0.484l0.002-0.871c0.277-0.145,0.464-0.435,0.464-0.769
	C26.366,25.566,25.979,25.179,25.5,25.179z"/>
<path fill="#3EA447" d="M25.5,20.785c-1.347,0-2.271,1.151-2.278,2.787h4.557C27.771,21.937,26.846,20.785,25.5,20.785z"/>
<path fill="#3EA447" d="M25.5,17c-4.694,0-8.5,3.806-8.5,8.499C17,30.194,20.806,34,25.5,34c4.695,0,8.5-3.806,8.5-8.501
	C34,20.806,30.195,17,25.5,17z M30.111,29.161c0,0.531-0.436,0.965-0.967,0.965h-7.289c-0.531,0-0.967-0.434-0.967-0.965v-4.62
	c0-0.531,0.436-0.969,0.967-0.969h0.186c0.013-2.297,1.46-3.834,3.459-3.834s3.446,1.537,3.459,3.834h0.186
	c0.531,0,0.967,0.438,0.967,0.969V29.161z"/>
</svg>
