<?xml version="1.0" encoding="utf-8"?>
<!-- Generator: Adobe Illustrator 16.0.4, SVG Export Plug-In . SVG Version: 6.00 Build 0)  -->
<!DOCTYPE svg PUBLIC "-//W3C//DTD SVG 1.1//EN" "http://www.w3.org/Graphics/SVG/1.1/DTD/svg11.dtd">
<svg version="1.1" id="Layer_1" xmlns="http://www.w3.org/2000/svg" xmlns:xlink="http://www.w3.org/1999/xlink" x="0px" y="0px"
	 width="11.181px" height="12.513px" viewBox="0 0 11.181 12.513" enable-background="new 0 0 11.181 12.513" xml:space="preserve">
<g>
	<defs>
		<path id="SVGID_1_" d="M5.59,12.513c-3.083,0-5.59-2.512-5.59-5.6c0-1.867,0.925-3.605,2.474-4.649
			c0.403-0.272,0.951-0.164,1.222,0.24c0.271,0.404,0.164,0.952-0.24,1.223C2.395,4.443,1.76,5.634,1.76,6.914
			c0,2.116,1.718,3.837,3.83,3.837c2.111,0,3.831-1.721,3.831-3.837c0-1.31-0.659-2.516-1.76-3.227
			c-0.408-0.264-0.526-0.81-0.263-1.219C7.662,2.059,8.206,1.94,8.615,2.205c1.606,1.037,2.565,2.797,2.565,4.709
			C11.181,10.001,8.674,12.513,5.59,12.513"/>
	</defs>
	<use xlink:href="#SVGID_1_"  overflow="visible" fill-rule="evenodd" clip-rule="evenodd" fill="#BBBBBB"/>
	<clipPath id="SVGID_2_">
		<use xlink:href="#SVGID_1_"  overflow="visible"/>
	</clipPath>
	<rect x="-5" y="-2.936" clip-path="url(#SVGID_2_)" fill="#BBBBBB" width="21.181" height="20.449"/>
</g>
<g>
	<defs>
		<path id="SVGID_3_" d="M5.546,7.409c-0.486,0-0.881-0.395-0.881-0.882V0.881C4.666,0.394,5.06,0,5.546,0
			c0.487,0,0.881,0.394,0.881,0.881v5.646C6.428,7.014,6.033,7.409,5.546,7.409"/>
	</defs>
	<use xlink:href="#SVGID_3_"  overflow="visible" fill-rule="evenodd" clip-rule="evenodd" fill="#BBBBBB"/>
	<clipPath id="SVGID_4_">
		<use xlink:href="#SVGID_3_"  overflow="visible"/>
	</clipPath>
	<rect x="-0.334" y="-5" clip-path="url(#SVGID_4_)" fill="#BBBBBB" width="11.761" height="17.409"/>
</g>
</svg>
