<?xml version="1.0" encoding="UTF-8"?>
<svg width="17px" height="17px" viewBox="0 0 17 17" version="1.1" xmlns="http://www.w3.org/2000/svg" xmlns:xlink="http://www.w3.org/1999/xlink">
    <title>power-on</title>
    <g id="power-on" stroke="none" stroke-width="1" fill="none" fill-rule="evenodd">
        <path d="M8.5,0 C13.1944204,0 17,3.80557963 17,8.5 C17,13.1944204 13.1944204,17 8.5,17 C3.80557963,17 0,13.1944204 0,8.5 C0,3.80557963 3.80557963,0 8.5,0 Z M12.0174416,3.16225511 C11.5418602,2.85792814 10.9093021,2.99458817 10.6023254,3.46428527 C10.2965114,3.93398236 10.4337207,4.56101076 10.9081393,4.86418932 C12.1883718,5.68070432 12.9546509,7.06567914 12.9546509,8.57008793 C12.9546509,11.0001101 10.9546509,12.9765128 8.5,12.9765128 C6.04418594,12.9765128 4.04651157,11.0001101 4.04651157,8.57008793 C4.04651157,7.10013124 4.78488365,5.73238249 6.01860454,4.91012547 C6.48837197,4.59890808 6.61279057,3.96958288 6.2976743,3.5056278 C5.98255803,3.04167272 5.34534875,2.91764513 4.87674411,3.23001092 C3.07558137,4.42894434 2,6.42486989 2,8.56893952 C2,12.11521 4.9151162,15 8.5,15 C12.0860462,15 15.0011624,12.11521 15,8.57008793 C15,6.37434013 13.8848834,4.3531497 12.0174416,3.16225511 Z M8.5,3 C7.94835366,3 7.50113507,3.26589283 7.5,3.59454717 L7.5,3.59454717 L7.5,7.40477797 C7.5,7.73343231 7.94835366,8 8.5,8 C9.05277926,8 9.50113292,7.73343231 9.5,7.40477797 L9.5,7.40477797 L9.5,3.59454717 C9.5,3.26589283 9.05277926,3 8.5,3 Z" id="Combined-Shape" fill="#FFFFFF"></path>
    </g>
</svg>