<?xml version="1.0" encoding="UTF-8"?>
<svg width="17px" height="17px" viewBox="0 0 17 17" version="1.1" xmlns="http://www.w3.org/2000/svg" xmlns:xlink="http://www.w3.org/1999/xlink">
    <title>power-off</title>
    <defs>
        <path d="M8,14 C3.58783532,14 0,10.6344117 0,6.49709611 C0,3.99568154 1.32379245,1.66710173 3.54060813,0.268346075 C4.1173523,-0.0960806855 4.90160989,0.0486181752 5.2894453,0.589899099 C5.67728071,1.13118002 5.52415012,1.86539276 4.94597482,2.22847972 C3.4275491,3.18777957 2.51878347,4.78348645 2.51878347,6.49843591 C2.51878347,9.33346174 4.97745962,11.6392649 8,11.6392649 C11.0211088,11.6392649 13.4826472,9.33346174 13.4826472,6.49843591 C13.4826472,4.74329232 12.5395345,3.12748838 10.9638637,2.17488755 C10.3799639,1.82117922 10.211091,1.08964609 10.5874774,0.541666145 C10.9652949,-0.0063137997 11.743828,-0.165750507 12.3291589,0.189297623 C14.6275488,1.57867465 16,3.93673016 16,6.49843591 C16.0014307,10.6344117 12.4135954,14 8,14" id="path-1"></path>
        <path d="M2,10 C1.44835366,10 1,9.46686462 1,8.80955595 L1,1.18909434 C1.00113507,0.531785666 1.44835366,0 2,0 C2.55277926,0 3,0.531785666 3,1.18909434 L3,8.80955595 C3.00113292,9.46686462 2.55277926,10 2,10" id="path-3"></path>
    </defs>
    <g id="power-off" stroke="none" stroke-width="1" fill="none" fill-rule="evenodd">
        <g id="Clipped" transform="translate(0.000000, 3.000000)">
            <mask id="mask-2" fill="white">
                <use xlink:href="#path-1"></use>
            </mask>
            <g id="SVGID_1_"></g>
            <rect id="Rectangle" fill="#FFFFFF" fill-rule="nonzero" mask="url(#mask-2)" x="-7" y="-7" width="30" height="28"></rect>
        </g>
        <g id="Clipped" transform="translate(6.000000, 0.000000)">
            <mask id="mask-4" fill="white">
                <use xlink:href="#path-3"></use>
            </mask>
            <g id="SVGID_3_"></g>
            <rect id="Rectangle" fill="#FFFFFF" fill-rule="nonzero" mask="url(#mask-4)" x="-6" y="-7" width="16" height="24"></rect>
        </g>
    </g>
</svg>