<?xml version="1.0" encoding="UTF-8"?>
<svg width="17px" height="16px" viewBox="0 0 17 16" version="1.1" xmlns="http://www.w3.org/2000/svg" xmlns:xlink="http://www.w3.org/1999/xlink">
    <title>Artboard</title>
    <g id="Artboard" stroke="none" stroke-width="1" fill="none" fill-rule="evenodd">
        <g id="Group" transform="translate(8.000000, 7.500000) scale(-1, 1) rotate(-315.000000) translate(-8.000000, -7.500000) translate(0.000000, -1.000000)" fill="#ffffff" fill-rule="nonzero">
            <path d="M9.0875,0.805714286 L9.0875,0.805714286 C9.0875,0.975714286 9.0125,1.09714286 8.9125,1.19428571 L8.9875,1.09714286 C9.0375,1 9.0875,0.902857143 9.0875,0.805714286 Z" id="Path"></path>
            <path d="M16,9.13779939 C16,13.4644821 12.4025157,17 8,17 C3.59748428,17 0,13.4644821 0,9.13779939 C0,5.23142299 2.91823899,1.99259192 6.71698113,1.37449439 L6.08805031,0.880016361 C5.86163522,0.706949052 5.83647799,0.410262237 6.01257862,0.187747125 C6.18867925,-0.0347679862 6.49056604,-0.0594918875 6.71698113,0.113575422 L8.32704403,1.34977049 C8.42767296,1.42394219 8.50314465,1.5475617 8.52830189,1.6711812 C8.52830189,1.6711812 8.52830189,1.6959051 8.52830189,1.6959051 C8.52830189,1.72062901 8.52830189,1.72062901 8.52830189,1.72062901 C8.52830189,1.81952461 8.47798742,1.94314412 8.42767296,2.01731582 L8.35220126,2.11621143 L7.16981132,3.5996455 C7.06918239,3.72326501 6.91823899,3.79743671 6.7672956,3.79743671 C6.66666667,3.79743671 6.5408805,3.77271281 6.46540881,3.69854111 C6.23899371,3.5254738 6.21383648,3.22878698 6.38993711,3.00627187 L6.91823899,2.33872654 C3.59748428,2.85792846 1.03144654,5.70117711 1.03144654,9.13779939 C1.03144654,12.9205563 4.17610063,16.0110439 8.02515723,16.0110439 C11.8742138,16.0110439 15.0188679,12.9205563 15.0188679,9.13779939 C15.0188679,8.00049993 14.7421384,6.88792437 14.1886792,5.89896832 C14.0628931,5.65172931 14.1383648,5.35504249 14.3899371,5.23142299 C14.6415094,5.10780348 14.9433962,5.18197519 15.0691824,5.4292142 C15.672956,6.56651366 16,7.82743262 16,9.13779939 Z" id="Path"></path>
        </g>
    </g>
</svg>
