<?xml version="1.0" encoding="utf-8"?>
<!-- Generator: Adobe Illustrator 16.0.4, SVG Export Plug-In . SVG Version: 6.00 Build 0)  -->
<!DOCTYPE svg PUBLIC "-//W3C//DTD SVG 1.1//EN" "http://www.w3.org/Graphics/SVG/1.1/DTD/svg11.dtd">
<svg version="1.1" id="Layer_1" xmlns="http://www.w3.org/2000/svg" xmlns:xlink="http://www.w3.org/1999/xlink" x="0px" y="0px"
	 width="73.188px" height="82.117px" viewBox="0 0 73.188 82.117" enable-background="new 0 0 73.188 82.117" xml:space="preserve">
<path fill="#FFFFFF" stroke="#FFFFFF" stroke-miterlimit="10" d="M45.211,8.631c0,4.779-3.868,8.644-8.637,8.644
	c-4.771,0-8.639-3.865-8.639-8.644c0-4.77,3.868-8.631,8.639-8.631C41.343,0,45.211,3.861,45.211,8.631"/>
<path fill="#FFFFFF" stroke="#FFFFFF" stroke-miterlimit="10" d="M58.411,66.289v7.217H14.662v-7.217l21.761-21.752L58.411,66.289
	 M73.187,34.527l-26.604-0.043l17.181-17.18l-6.164-6.038L36.423,32.432L15.131,10.908l-6.053,6.171L26.54,34.527H0v8.023h26.416
	L6.052,62.684v19.434H67.02V62.684L46.663,42.55h26.522L73.187,34.527L73.187,34.527z"/>
</svg>
