<?xml version="1.0" encoding="UTF-8"?>
<svg width="17px" height="17px" viewBox="0 0 17 17" version="1.1" xmlns="http://www.w3.org/2000/svg" xmlns:xlink="http://www.w3.org/1999/xlink">
    <title>theme-collapse</title>
    <g id="theme-collapse" stroke="none" stroke-width="1" fill="none" fill-rule="evenodd">
        <path d="M8.9250847,10.1627426 C8.68337914,9.94559456 8.29264176,9.94591045 8.05312773,10.1627426 L5.21683861,12.7304357 C4.55928216,13.3301008 5.545704,14.2296781 6.20326048,13.6300129 L7.43165909,12.5097625 C7.63652385,12.322934 7.80259955,12.3851472 7.80259955,12.6524058 L7.80259955,16.3639192 C7.80259955,16.7153539 8.11472528,17 8.50008719,17 C8.88527472,17 9.19757482,16.7153539 9.19757482,16.3639192 L9.19757482,12.6524058 C9.19757482,12.3867976 9.36269033,12.3220748 9.56847482,12.5097625 L10.7967395,13.6300129 C11.454296,14.2296781 12.4407178,13.3301008 11.7831614,12.7304357 L8.9250847,10.1627426 Z M8.0749153,6.83725743 C8.31662086,7.05440544 8.70735824,7.05408955 8.94687227,6.83725743 L11.7831614,4.26956436 C12.4407178,3.66989918 11.454296,2.77032192 10.7967395,3.3699871 L9.56834091,4.49023747 C9.36347615,4.67706595 9.19740045,4.61485287 9.19740045,4.34759421 L9.19740045,0.636080777 C9.19740045,0.284646148 8.88527472,0 8.49991281,0 C8.11472528,0 7.80242518,0.284646148 7.80242518,0.636080777 L7.80242518,4.34759421 C7.80242518,4.61320239 7.63730967,4.67792518 7.43152518,4.49023747 L6.20326048,3.3699871 C5.545704,2.77032192 4.55928216,3.66989918 5.21683861,4.26956436 L8.0749153,6.83725743 Z" id="Shape" fill="#FFFFFF" fill-rule="nonzero" transform="translate(8.500000, 8.500000) scale(-1, -1) rotate(-180.000000) translate(-8.500000, -8.500000) "></path>
    </g>
</svg>