<?xml version="1.0" encoding="UTF-8"?>
<svg width="11px" height="9px" viewBox="0 0 11 9" version="1.1" xmlns="http://www.w3.org/2000/svg" xmlns:xlink="http://www.w3.org/1999/xlink">
    <title>themes_expand_horiz</title>
    <g id="themes_expand_horiz" stroke="none" stroke-width="1" fill="none" fill-rule="evenodd">
        <g id="Group" fill="#FFFFFF" fill-rule="nonzero">
            <path d="M3.58536585,6.14635004 C3.44922286,6.14712858 3.31836818,6.0936809 3.22170732,5.99780488 L1.68512195,4.46121951 C1.48653182,4.26144423 1.48653182,3.93879967 1.68512195,3.73902439 L3.22170732,2.20243902 C3.42113599,2.00159597 3.74562035,2.00044938 3.94646341,2.19987806 C4.14730647,2.39930673 4.14845306,2.72379108 3.94902439,2.92463415 L2.77097561,4.09756098 L3.94390244,5.2704878 C4.09098509,5.41636564 4.13571454,5.63647784 4.05723478,5.82819267 C3.97875502,6.01990751 3.79252014,6.1454729 3.58536585,6.14635004 Z" id="Path"></path>
            <path d="M6.65853659,6.14635019 C6.4504496,6.14755159 6.26231266,6.02274685 6.18251732,5.8305637 C6.10272198,5.63838055 6.14713027,5.41702194 6.29487805,5.2704878 L7.47292683,4.09756098 L6.29487805,2.92463415 C6.12084603,2.72141547 6.13254689,2.41848591 6.32173591,2.22929689 C6.51092494,2.04010786 6.81385449,2.02840701 7.01707317,2.20243902 L8.55365854,3.73902439 C8.75224867,3.93879967 8.75224867,4.26144423 8.55365854,4.46121951 L7.01707317,5.99780488 C6.92167138,6.09242994 6.79290579,6.14577568 6.65853659,6.14635019 Z" id="Path"></path>
            <path d="M9.73170732,8.19512195 C9.44882976,8.19512195 9.2195122,7.96580438 9.2195122,7.68292683 L9.2195122,0.512195122 C9.2195122,0.229317567 9.44882976,-3.55271368e-15 9.73170732,-3.55271368e-15 C10.0145849,-3.55271368e-15 10.2439024,0.229317567 10.2439024,0.512195122 L10.2439024,7.68292683 C10.2439024,7.96580438 10.0145849,8.19512195 9.73170732,8.19512195 Z" id="Path"></path>
            <path d="M0.512195122,8.19512195 C0.229317567,8.19512195 -1.11022302e-14,7.96580438 -1.11022302e-14,7.68292683 L-1.11022302e-14,0.512195122 C-1.11022302e-14,0.229317567 0.229317567,-3.55271368e-15 0.512195122,-3.55271368e-15 C0.795072677,-3.55271368e-15 1.02439024,0.229317567 1.02439024,0.512195122 L1.02439024,7.68292683 C1.02439024,7.96580438 0.795072677,8.19512195 0.512195122,8.19512195 Z" id="Path"></path>
            <path d="M8.19512195,4.6097561 L2.04878049,4.6097561 C1.76590293,4.6097561 1.53658537,4.38043853 1.53658537,4.09756098 C1.53658537,3.81468342 1.76590293,3.58536585 2.04878049,3.58536585 L8.19512195,3.58536585 C8.47799951,3.58536585 8.70731707,3.81468342 8.70731707,4.09756098 C8.70731707,4.38043853 8.47799951,4.6097561 8.19512195,4.6097561 Z" id="Path"></path>
        </g>
    </g>
</svg>