<?xml version="1.0" encoding="UTF-8"?>
<svg width="13px" height="13px" viewBox="0 0 13 13" version="1.1" xmlns="http://www.w3.org/2000/svg" xmlns:xlink="http://www.w3.org/1999/xlink">
    <title>uncheck</title>
    <g id="uncheck" stroke="none" stroke-width="1" fill="none" fill-rule="evenodd">
        <g id="noun_Check_2422565" fill="#ffffff" fill-rule="nonzero">
            <path d="M10.4017626,0 L2.59812379,0 C1.16553564,0 0,1.16555868 0,2.59812416 L0,10.4017627 C0,11.8344644 1.16553564,13 2.59812379,13 L10.4017626,13 C11.8344417,13 13,11.8344644 13,10.4017627 L13,2.59812414 C13,1.16555868 11.8344417,0 10.4017626,0 Z M12.5435,10.4017626 C12.5435,11.5826827 11.5826827,12.5435 10.4017626,12.5435 L2.59812379,12.5435 C1.4172041,12.5435 0.456499982,11.5826827 0.456499982,10.4017626 L0.456499982,2.59812414 C0.456499982,1.41720405 1.4172041,0.456499944 2.59812379,0.456499944 L10.4017626,0.456499944 C11.5826827,0.456499944 12.5435,1.41720403 12.5435,2.59812414 L12.5435,10.4017626 Z" id="Shape"></path>
        </g>
    </g>
</svg>
