<?xml version="1.0" encoding="utf-8"?>
<!-- Generator: Adobe Illustrator 16.0.4, SVG Export Plug-In . SVG Version: 6.00 Build 0)  -->
<!DOCTYPE svg PUBLIC "-//W3C//DTD SVG 1.1//EN" "http://www.w3.org/Graphics/SVG/1.1/DTD/svg11.dtd">
<svg version="1.1" id="Layer_1" xmlns="http://www.w3.org/2000/svg" xmlns:xlink="http://www.w3.org/1999/xlink" x="0px" y="0px"
	 width="64.074px" height="54.281px" viewBox="8.007 4.823 64.074 54.281" enable-background="new 8.007 4.823 64.074 54.281"
	 xml:space="preserve">
<path fill="#FFFFFF" d="M72.081,53.682c-0.007,3.001-2.444,5.43-5.444,5.422c-1.857-0.005-3.582-0.956-4.576-2.522L40.081,20.596
	L18.103,56.46c-1.567,2.567-4.919,3.379-7.487,1.812c-2.567-1.566-3.378-4.919-1.811-7.486L35.251,7.433
	c1.626-2.601,5.056-3.391,7.655-1.764c0.714,0.447,1.316,1.051,1.764,1.764l26.445,43.353
	C71.708,51.638,72.043,52.645,72.081,53.682z M44.67,13.23L44.67,13.23z"/>
</svg>
