<?xml version="1.0" encoding="utf-8"?>
<!-- Generator: Adobe Illustrator 16.0.4, SVG Export Plug-In . SVG Version: 6.00 Build 0)  -->
<!DOCTYPE svg PUBLIC "-//W3C//DTD SVG 1.1//EN" "http://www.w3.org/Graphics/SVG/1.1/DTD/svg11.dtd">
<svg version="1.1" id="Layer_1" xmlns="http://www.w3.org/2000/svg" xmlns:xlink="http://www.w3.org/1999/xlink" x="0px" y="0px"
	 width="17px" height="17px" viewBox="10.7 10.7 17 17" enable-background="new 10.7 10.7 17 17" xml:space="preserve">
<g>
	<path fill="#FFFFFF" d="M27.318,26.75l-5.728-5.727c0.895-1.062,1.426-2.458,1.426-3.938c0-3.381-2.767-6.146-6.147-6.146
		c-3.379,0-6.145,2.765-6.145,6.146c0,3.379,2.766,6.146,6.145,6.146c1.482,0,2.878-0.531,3.939-1.426l5.727,5.728
		c0.224,0.223,0.56,0.223,0.783,0C27.541,27.31,27.541,26.974,27.318,26.75z M16.869,22.114c-2.765,0-5.028-2.264-5.028-5.029
		s2.263-5.027,5.028-5.027c2.766,0,5.03,2.262,5.03,5.027S19.635,22.114,16.869,22.114z M18.741,13.956
		c-0.056,0.112-0.139,0.168-0.251,0.168c-0.056,0-0.083,0-0.111-0.028c-0.14-0.084-0.28-0.14-0.447-0.196
		c-0.141-0.056-0.224-0.196-0.168-0.363c0.055-0.14,0.196-0.223,0.363-0.167s0.336,0.14,0.503,0.224
		C18.769,13.649,18.825,13.817,18.741,13.956z M17.149,13.454c0,0.167-0.111,0.279-0.28,0.279c-1.843,0-3.351,1.509-3.351,3.352
		c0,0.168-0.111,0.28-0.28,0.28c-0.167,0-0.279-0.112-0.279-0.28c0-2.151,1.76-3.911,3.91-3.911
		C17.038,13.174,17.149,13.286,17.149,13.454z"/>
</g>
</svg>
